Coordinates
version=1
nRows=16
nColumns=36
inDegrees=yes

Units are S.I. units (second, meters, Newtons, ...)
If the header above contains a line with 'inDegrees', this indicates whether rotational values are in degrees (yes) or radians (no).

endheader
time	pelvis_tilt	pelvis_list	pelvis_rotation	pelvis_tx	pelvis_ty	pelvis_tz	hip_flexion_r	hip_adduction_r	hip_rotation_r	knee_angle_r	knee_angle_r_beta	ankle_angle_r	subtalar_angle_r	mtp_angle_r	hip_flexion_l	hip_adduction_l	hip_rotation_l	knee_angle_l	knee_angle_l_beta	ankle_angle_l	subtalar_angle_l	mtp_angle_l	lumbar_extension	lumbar_bending	lumbar_rotation	arm_flex_r	arm_add_r	arm_rot_r	elbow_flex_r	pro_sup_r	arm_flex_l	arm_add_l	arm_rot_l	elbow_flex_l	pro_sup_l
     14.88333330	     -1.89486056	      5.58986300	     -0.38255917	      1.09578117	      0.92988762	      0.72326388	    -12.28973787	     -7.40028731	     11.01460431	     22.46586611	      0.39210333	     10.68835196	      1.56909180	     -7.49999987	     26.17538295	      3.69543947	     -3.68708573	     23.99813681	      0.41884650	      2.65377819	     -4.43777384	     -7.49999987	     -4.28905795	     -6.02343418	      8.56563690	      2.07044501	     -8.35356459	     -1.59719147	     20.47985236	     87.95736896	     15.04822669	     -7.19068677	     22.48902288	    136.74140933	     84.09219692
     14.90000000	     -2.01393511	      5.73130072	     -0.55920983	      1.09474749	      0.93024935	      0.72003863	    -11.56946584	     -7.65169385	     11.41886779	     25.17859550	      0.43944939	      6.78145442	     -0.12993948	     -7.49999987	     25.46110184	      4.33972269	     -3.20490733	     24.54986702	      0.42847601	      2.96731158	     -5.10995880	     -7.49999987	     -3.84144403	     -6.09671177	      8.93671851	      1.50240855	     -8.42302780	     -2.41825668	     20.80864094	     86.64169246	     14.55639486	     -7.18223669	     22.96447844	    136.53395571	     82.70730693
     14.91666670	     -2.08054703	      5.79454782	     -0.62878117	      1.09227758	      0.92911163	      0.71735173	    -10.17291508	     -7.64776122	     11.70128968	     28.96366355	      0.50551129	      2.50715626	     -1.83281001	     -7.49999987	     24.69111309	      4.87856649	     -2.65506085	     24.98040498	      0.43599032	      3.40179188	     -5.83229266	     -7.49999987	     -3.62949269	     -6.13367810	      8.91241013	      1.41941123	     -8.53667177	     -2.84113325	     21.09926188	     85.75244066	     14.65328022	     -7.35895091	     23.13735152	    136.56002722	     81.56595075
     14.93333330	     -2.08194038	      5.83903246	     -0.81522963	      1.09116113	      0.92553760	      0.71463502	     -8.06594280	     -7.54100444	     11.92069933	     33.72390980	      0.58859326	     -1.53635202	     -3.26409891	     -7.49999987	     23.83571107	      5.26258652	     -2.37899324	     25.29508042	      0.44148244	      4.00666518	     -6.44603444	     -7.49999987	     -3.58046509	     -6.21467826	      8.82598394	      1.48493084	     -8.72789592	     -2.84139003	     21.59072152	     85.86503560	     15.40704700	     -7.51157486	     22.82461118	    137.06573133	     81.45266402
     14.95000000	     -2.03023328	      5.75890103	     -1.15816572	      1.09139315	      0.92132211	      0.71287904	     -5.35110019	     -7.20003723	     12.24427510	     39.20335137	      0.68422756	     -5.59537330	     -5.03061755	     -7.49999987	     22.92006674	      5.40646807	     -2.30392109	     25.53817033	      0.44572516	      4.73150014	     -6.99322312	     -7.49999987	     -3.66470059	     -6.19782479	      8.56300074	      1.73073914	     -8.86677660	     -2.75583297	     22.24657304	     86.21166050	     16.33553200	     -7.79744719	     22.51040365	    137.99390315	     81.55379739
     14.96666670	     -2.23052063	      5.51168597	     -1.53592749	      1.09186004	      0.91843969	      0.71196861	     -1.88109225	     -6.60540833	     12.47889632	     45.11681867	      0.78743703	     -9.31111382	     -6.72791311	     -7.49999987	     22.27671874	      5.30445571	     -2.34916687	     25.75041606	      0.44942954	      5.67383237	     -7.33239751	     -7.49999987	     -3.53206484	     -5.95883699	      8.06491022	      1.78763541	     -9.04879524	     -3.05888765	     23.53879539	     91.53012974	     16.77454809	     -8.07291795	     21.79314788	    139.17326542	     84.24402323
     14.98333330	     -2.15222954	      5.27446043	     -1.94749469	      1.09188195	      0.91847622	      0.71138817	      1.45235300	     -5.98842213	     12.56316332	     50.82974532	      0.88714641	    -11.96480407	     -8.07060629	     -7.49999987	     21.24778919	      5.16916336	     -2.45701403	     25.74178695	      0.44927894	      6.48628486	     -7.72798465	     -7.49999987	     -3.87648174	     -5.84578427	      8.02326842	      1.78616632	     -9.18161146	     -3.11394717	     24.46536494	     91.49218026	     17.47529577	     -8.17639085	     21.64416240	    140.16457976	     84.23645096
     15.00000000	     -2.05871921	      4.90271227	     -2.17654626	      1.09193459	      0.92091188	      0.71079410	      4.52001763	     -5.21437532	     12.37354157	     55.62936523	      0.97091558	    -13.44365257	     -8.80846661	     -7.49999987	     20.18042270	      4.87759430	     -2.43227712	     25.71581540	      0.44882565	      7.27263299	     -8.05900243	     -7.49999987	     -4.34602860	     -5.56799273	      7.76647592	      1.80225191	     -9.26653356	     -3.10493983	     25.29928488	     91.52072185	     17.84594989	     -8.42801128	     21.51006463	    140.65998006	     84.27618732
     15.01666670	     -2.36253611	      4.51248132	     -2.31661117	      1.09235488	      0.92410510	      0.71032824	      7.61690630	     -4.46448838	     11.98276497	     59.27403134	      1.03452701	    -14.06603364	     -9.15339515	     -7.49999987	     19.48896266	      4.48575136	     -2.47333475	     25.62111460	      0.44717281	      7.88826386	     -8.16388113	     -7.49999987	     -4.36585492	     -5.12016679	      7.36945052	      1.62104313	     -9.24385266	     -2.95860005	     26.54231042	     91.70606079	     17.45294133	     -8.75522260	     21.54738541	    141.19668189	     84.46492477
     15.03333330	     -2.42920769	      4.08692723	     -2.45946408	      1.09204096	      0.92718974	      0.70974760	     10.13053800	     -3.65647822	     11.68990808	     61.72789060	      1.07735493	    -13.62932535	     -9.44919383	     -7.49999987	     18.50392458	      4.03597745	     -2.49642866	     25.44536853	      0.44410546	      8.52415999	     -7.98270458	     -7.49999987	     -4.77196972	     -4.75777833	      7.35215023	      1.33205374	     -9.22447004	     -2.94771470	     27.46120872	     90.65777282	     17.59357671	     -8.84306336	     22.08015856	    140.92727109	     83.75270139
     15.05000000	     -2.39160167	      3.56714967	     -2.54484618	      1.09091019	      0.92969669	      0.70838086	     12.40440062	     -2.92370111	     11.18450520	     63.20495202	      1.10313452	    -11.89325518	     -9.96577410	     -7.49999987	     17.32545221	      3.56318227	     -2.34012291	     25.15413836	      0.43902253	      9.12924609	     -7.71682852	     -7.49999987	     -5.32039985	     -4.19048128	      6.81954834	      1.52973110	     -9.13541183	     -2.53703013	     27.91549113	     90.18919825	     17.48179292	     -9.07512742	     22.76796856	    140.72033674	     83.54851949
     15.06666670	     -2.50419115	      3.02203598	     -2.74945664	      1.08958269	      0.93219680	      0.70686970	     14.84292997	     -2.23688151	     10.79414124	     63.60618328	      1.11013732	     -9.05573323	    -11.12610647	     -7.49999987	     16.15921040	      3.04696252	     -2.30248753	     24.75186321	      0.43200151	      9.85142643	     -7.20929562	     -7.49999987	     -5.65254110	     -3.58655399	      6.32357042	      1.75012159	     -9.19288093	     -1.63048163	     28.27377777	     89.98671217	     17.19585238	     -9.08860706	     23.12565494	    140.29659840	     83.58310804
     15.08333330	     -2.55682608	      2.45483199	     -2.99481034	      1.08830579	      0.93538807	      0.70550645	     17.03741434	     -1.59381281	     10.50357369	     63.05795043	      1.10056885	     -5.55658737	    -12.51156496	     -7.49999987	     14.81394008	      2.55273329	     -2.21500347	     24.29308487	      0.42399432	     10.68023594	     -6.60041763	     -7.49999987	     -6.04316230	     -2.88843187	      5.82575721	      1.99361336	     -9.32636046	     -0.45803188	     28.52249874	     89.34753618	     16.79190630	     -9.03871974	     23.33107192	    139.60329851	     83.45697214
     15.10000000	     -2.73035450	      1.89166647	     -3.22047388	      1.08653982	      0.93751920	      0.70397910	     19.14377365	     -0.97619986	     10.31622214	     61.79088327	      1.07845436	     -2.44553419	    -13.78430321	     -7.49999987	     13.61490665	      2.11041739	     -2.01108958	     23.85671477	      0.41637822	     11.35664298	     -6.33504134	     -7.49999987	     -6.17122627	     -2.11610814	      5.19669816	      2.25155461	     -9.57337202	      0.97189721	     28.63776165	     89.19324531	     16.23758262	     -8.93631493	     23.33374547	    139.00368086	     83.80304791
     15.11666670	     -3.06216507	      1.31957105	     -3.24694150	      1.08456860	      0.93708862	      0.70187952	     21.17434190	     -0.44908586	      9.99862239	     59.75892762	      1.04299004	      0.01785717	    -14.57199458	     -7.49999987	     12.70535252	      1.70343784	     -1.64006552	     23.49150995	      0.41000419	     12.10550952	     -6.21995647	     -7.49999987	     -6.09970236	     -1.33704586	      4.72812586	      2.20632051	     -9.82413021	      1.32534447	     29.02975121	     89.16860824	     16.16679498	     -8.59724802	     23.83427156	    138.49190800	     83.91921447
     15.13333330	     -3.50820836	      0.90082481	     -3.33507877	      1.08332062	      0.93488627	      0.70015709	     23.19094677	     -0.08640964	      9.80812425	     57.35981977	      1.00111771	      1.95982228	    -14.99920464	     -7.49999987	     12.10283308	      1.38922121	     -1.48072189	     23.25716707	      0.40591414	     12.89178217	     -6.10682748	     -7.49999987	     -5.93214077	     -0.80197872	      4.91944445	      1.53252366	    -10.27400568	      1.55715439	     30.17218182	     86.84972998	     16.71725722	     -7.93241431	     25.02615817	    138.31492578	     82.33100186
